<svg width="13" height="13" viewBox="0 0 13 13" fill="none" xmlns="http://www.w3.org/2000/svg">
<g clip-path="url(#clip0_880_10173)">
<path d="M11.6033 6.3418H6.54077V1.2793C6.54077 1.02041 6.33091 0.810547 6.07202 0.810547C5.81313 0.810547 5.60327 1.02041 5.60327 1.2793V6.3418H0.540771C0.281881 6.3418 0.0720215 6.55166 0.0720215 6.81055C0.0720215 7.06944 0.281881 7.2793 0.540771 7.2793H5.60327V12.3418C5.60327 12.6007 5.81313 12.8105 6.07202 12.8105C6.33091 12.8105 6.54077 12.6007 6.54077 12.3418V7.2793H11.6033C11.8622 7.2793 12.072 7.06944 12.072 6.81055C12.072 6.55166 11.8622 6.3418 11.6033 6.3418Z" fill="white"/>
</g>
<defs>
<clipPath id="clip0_880_10173">
<rect width="12" height="12" fill="white" transform="translate(0.0720215 0.810547)"/>
</clipPath>
</defs>
</svg>
