<svg width="230" height="167" viewBox="0 0 230 167" fill="none" xmlns="http://www.w3.org/2000/svg">
<path d="M110.622 35.8458C109.9 37.0165 108.352 39.4754 106.362 42.2465C104.586 44.7222 102.458 47.4468 100.252 49.7242C95.5832 54.5465 90.5706 57.3625 87.8273 51.5623C82.7382 40.8027 98.292 33.0507 105.01 28.3981C106.566 27.3204 108.46 26.2099 110.24 26.8547C111.863 27.4421 112.691 29.363 112.554 31.0871C112.415 32.81 111.529 34.3746 110.622 35.8458Z" fill="#F0C89F"/>
<path d="M107.915 62.7158C107.663 63.0747 107.6 62.9809 107.341 63.3355C108.295 62.4065 109.095 61.9032 110.343 61.4394C111.59 60.9756 113.166 61.1399 114.007 62.1735C115.818 64.3988 113.14 68.8441 110.831 71.6455C111.681 71.325 113.016 72.0503 113.444 72.8523C114.448 74.7324 112.597 78.4272 112.152 79.2199C109.537 83.8752 105.407 89.7789 102.288 93.9319C99.292 97.9221 97.7276 94.1296 93.3564 96.8678C91.2098 98.2167 88.4354 99.3567 86.239 98.0909C84.1399 96.8813 83.6543 94.0892 83.6144 91.6643C83.395 78.3504 89.5144 66.3361 98.9972 56.7458C101.9 53.8104 104.879 50.5878 108.356 49.1155C110.105 48.3747 112.119 47.3535 113.616 49.4457C114.595 50.8136 114.297 52.7529 113.512 54.2409C111.957 57.1904 109.833 59.9887 107.915 62.7158Z" fill="#F0C89F"/>
<path d="M20.6312 166.81H59.6811C60.0171 156.983 60.5649 145.347 62.6407 143.356C63.0544 142.959 63.5375 142.559 64.103 142.157C64.1298 142.138 64.1557 142.119 64.1825 142.1C67.8255 139.51 71.6562 137.173 74.5818 133.859C74.9458 133.447 75.2956 133.021 75.6296 132.577C77.9915 129.433 79.9515 126.05 82.1625 122.816C82.8911 121.751 83.7657 120.488 84.4441 119.133C85.3395 117.347 85.8951 115.403 85.3288 113.549C84.0768 109.454 76.2317 109.746 71.9739 110.142C67.7152 110.538 63.4994 112.132 59.2692 111.501C51.666 110.367 46.8215 102.357 45.8869 94.7157C44.9522 87.0758 46.8017 79.3895 47.0245 71.6953C47.3198 61.4711 47.6332 53.3746 41.4332 42.6033C40.4467 40.8894 37.9248 39.9311 36.7188 39.1943C35.5127 38.4574 33.8042 38.361 32.7804 39.336C31.2924 40.7529 32.0625 43.1987 32.7087 45.1504C35.227 52.7508 34.1383 61.1183 31.7568 68.7639C29.3755 76.4085 25.7578 83.6096 23.1136 91.1669C18.5735 104.146 18.9722 112.416 21.0195 125.578C21.7008 129.959 20.5236 151.828 20.6312 166.81Z" fill="#F0C89F"/>
<path opacity="0.65" d="M84.5346 117.145C83.8562 118.499 83.4834 120.799 82.0708 122.781C79.7741 126.004 77.8998 129.397 75.5379 132.542C75.2039 132.986 74.8542 133.412 74.4902 133.824C74.6918 130.776 73.8698 127.621 71.9942 125.208C69.8936 122.505 59.3067 117.714 55.8533 117.345C62.927 117.144 78.0932 117.302 84.5346 117.145Z" fill="#CA4533"/>
<path d="M30.9734 130.009C28.649 129.119 26.6083 127.662 24.646 125.532C21.6108 122.238 19.1836 115.209 20.3812 110.584C20.4155 110.452 20.5056 110.34 20.6258 110.275C20.9906 110.077 21.4237 110.382 21.3603 110.793C21.0675 112.688 21.2928 115.024 22.0192 117.504C22.8407 120.307 24.1824 122.86 25.7003 124.508C28.5107 127.558 31.4837 129.195 35.2513 129.743C35.618 129.796 35.8016 130.216 35.5924 130.522L35.437 130.75C35.3324 130.903 35.1518 130.987 34.9678 130.966C33.5349 130.798 32.2137 130.484 30.9734 130.009Z" fill="#F8BE82"/>
<path d="M102.222 68.7938C102.197 68.7841 102.173 68.7693 102.152 68.7494C102.069 68.6695 102.066 68.5372 102.146 68.4539L107.191 63.1894C107.27 63.1061 107.402 63.1031 107.486 63.1834C107.569 63.2632 107.572 63.3956 107.492 63.4788L102.447 68.7433C102.387 68.8058 102.298 68.8229 102.222 68.7938Z" fill="#CA4533"/>
<path d="M110.686 71.504L102.033 80.7129L102.337 80.9993L110.99 71.7904L110.686 71.504Z" fill="#CA4533"/>
<path opacity="0.71" d="M106.379 88.3598C105.122 88.1178 104.57 87.7581 103.9 86.6924C103.189 85.5605 102.359 82.8557 102.191 80.8574C101.166 82.9179 99.765 89.1095 99.4276 90.9949C99.1255 92.6813 98.9565 94.4839 98.5442 96.1588C98.503 96.3303 98.458 96.5003 98.4102 96.6691C98.7201 96.4896 99.0219 96.3033 99.3143 96.1119C100.403 95.4015 101.344 94.909 102.247 94.0597L106.379 88.3598Z" fill="#CA4533"/>
<path opacity="0.71" d="M106.037 42.6028C104.261 45.0785 102.457 47.4461 100.252 49.7236C100.169 48.6385 100.251 47.5375 100.368 46.4554C100.519 45.0526 100.465 39.8284 101.059 38.573C101.689 38.2488 101.553 40.3115 103.62 42.1299C104.104 42.556 105.158 42.7373 106.037 42.6028Z" fill="#CA4533"/>
<path opacity="0.71" d="M105.873 64.9474C102.631 67.7325 100.043 70.7853 97.4334 74.1714C97.1116 72.4458 97.4078 70.6996 97.7858 69.0097C97.9218 67.8111 98.1158 66.5362 98.4192 65.3684C98.7695 64.0199 99.7905 63.1934 100.675 62.1493C100.871 61.9179 101.1 61.6688 101.403 61.6473C101.852 61.6153 102.049 61.6556 102.248 62.061C102.641 62.8625 102.547 63.7773 103.215 64.4823C103.952 65.2599 105 65.6971 105.873 64.9474Z" fill="#CA4533"/>
<path opacity="0.71" d="M105.334 77.2486C102.246 80.3689 99.8961 83.2465 97.286 86.6326C96.9642 84.907 96.4989 83.0659 96.8769 81.376C97.1849 79.9988 100.672 71.5586 101.403 70.3774C102.258 68.9964 101.839 73.2365 102.767 75.7772C103.069 76.6032 104.323 78.1166 105.334 77.2486Z" fill="#CA4533"/>
<path d="M100.737 26.5256V125.618C100.737 125.723 100.736 125.826 100.735 125.929C100.734 126.08 100.732 126.229 100.73 126.375C100.722 126.911 100.705 127.409 100.679 127.874C100.668 128.058 100.657 128.238 100.642 128.411C100.517 130.014 100.254 131.165 99.7938 131.991C99.6844 132.188 99.5634 132.367 99.4296 132.529C98.8051 133.288 97.9143 133.678 96.6721 133.878C96.5297 133.901 96.3818 133.922 96.2303 133.94C95.4885 134.029 94.6337 134.064 93.6505 134.078C93.4758 134.081 93.2968 134.083 93.1135 134.084C92.8153 134.086 92.5055 134.086 92.1847 134.086H53.4071C51.8435 134.086 50.5414 133.97 49.4654 133.708C49.3138 133.671 49.1666 133.63 49.0242 133.588C48.7914 133.518 48.5702 133.439 48.3601 133.353C48.1725 133.276 47.9934 133.192 47.823 133.102C47.5089 132.935 47.2248 132.744 46.9675 132.529C46.7708 132.365 46.5905 132.186 46.4249 131.991C45.6862 131.124 45.2475 129.952 45.0294 128.411C45.0043 128.237 44.9823 128.058 44.9634 127.874C44.9145 127.406 44.8833 126.906 44.8674 126.375C44.8632 126.228 44.8595 126.08 44.8577 125.929C44.8564 125.826 44.8558 125.722 44.8552 125.618V26.5256C44.8552 21.6884 45.1675 19.2111 49.0242 18.3374C49.1666 18.3049 49.3138 18.275 49.4654 18.2468C50.5212 18.0529 51.8166 17.9629 53.4071 17.9629H92.1847C93.8253 17.9629 95.1542 18.0498 96.2303 18.2223C96.3824 18.2462 96.5297 18.2725 96.6721 18.3006C101.38 19.2203 100.737 22.009 100.737 26.5256Z" fill="#D6A5B7"/>
<path d="M42.9453 26.0479V29.855C42.6368 29.9984 42.4246 30.3115 42.4246 30.6738V35.9646C42.4246 36.3269 42.6368 36.64 42.9453 36.7834V42.7914C42.6368 42.9349 42.4246 43.2479 42.4246 43.6113V51.0706C42.4246 51.4329 42.6368 51.746 42.9453 51.8894V53.5857C42.6368 53.7291 42.4246 54.0422 42.4246 54.4045V61.8638C42.4246 62.2271 42.6368 62.5401 42.9453 62.6826V126.003C42.9453 135.151 45.5205 136.562 53.4907 136.562H92.1013C101.133 136.562 102.647 133.798 102.647 126.003V66.9911C102.758 66.9367 102.856 66.8582 102.933 66.7629C103.055 66.6142 103.128 66.4236 103.128 66.2163V46.5965C103.128 46.3902 103.055 46.1996 102.933 46.051C102.856 45.9557 102.758 45.8771 102.647 45.8227V26.0479C102.647 17.203 100.547 15.4883 92.1013 15.4883H53.4907C45.1373 15.4883 42.9453 18.2583 42.9453 26.0479ZM92.185 17.9636C99.5767 17.9636 100.736 19.6852 100.736 26.5264V125.525C100.736 132.065 98.5947 134.087 92.185 134.087H53.4071C46.1432 134.087 44.8557 131.457 44.8557 125.525V26.5264C44.8557 19.9673 46.7659 17.9636 53.4071 17.9636H92.185Z" fill="#3F1629"/>
<path d="M66.4246 19.9668H79.1671C80.3991 19.9668 81.3979 20.9669 81.3979 22.2007C81.3979 22.8172 81.1482 23.3762 80.7443 23.7801C80.341 24.1846 79.7834 24.4346 79.1671 24.4346H66.4246C65.1926 24.4346 64.1937 23.4344 64.1937 22.2007C64.1937 21.5842 64.4434 21.0252 64.8474 20.6214C65.2507 20.2168 65.8089 19.9668 66.4246 19.9668Z" fill="#3F1629"/>
<path d="M80.4831 51.8056H144.407C144.407 51.8056 142.969 47.4871 138.273 50.1741C137.788 47.4966 135.629 45.4962 133.098 45.2798C130.987 45.0994 128.908 46.1847 127.731 48.0629C127.284 47.5378 125.588 45.6715 122.747 45.2798C120.969 45.0346 119.538 45.4776 118.818 45.7596C117.915 41.6632 114.391 38.6703 110.289 38.4662C106.395 38.2724 102.751 40.6288 101.28 44.3202C100.999 44.0229 98.223 41.1855 94.1879 41.729C91.0248 42.1552 88.3552 44.4882 87.3834 47.679C87.0622 47.5522 85.2672 46.8794 83.3582 47.775C80.904 48.9263 80.5077 51.6161 80.4831 51.8056Z" fill="white"/>
<path d="M102.628 47.2109C102.518 47.2109 102.417 47.1377 102.386 47.026C101.062 42.2267 95.768 41.8872 95.7146 41.8844C95.576 41.8769 95.4695 41.7583 95.4768 41.6195C95.4842 41.4806 95.604 41.3734 95.741 41.3813C95.798 41.3842 101.449 41.7382 102.871 46.8919C102.908 47.026 102.829 47.1648 102.695 47.2018C102.673 47.208 102.65 47.2109 102.628 47.2109Z" fill="#3F1629"/>
<path d="M106.702 49.1295C106.619 49.1295 106.539 49.0892 106.491 49.0152C106.441 48.9392 105.254 47.152 103.114 47.21C101.337 47.256 100.29 48.5334 100.098 48.789C100.015 48.9002 99.8568 48.9226 99.7457 48.839C99.6347 48.7555 99.6123 48.5975 99.6957 48.4863C99.912 48.1982 101.092 46.7583 103.101 46.7063C105.523 46.6483 106.856 48.6543 106.912 48.7399C106.988 48.8564 106.955 49.0125 106.839 49.0885C106.796 49.1162 106.749 49.1295 106.702 49.1295Z" fill="#3F1629"/>
<path d="M116.669 48.8894C116.648 48.8894 116.626 48.8867 116.605 48.8812C116.471 48.8462 116.39 48.7092 116.425 48.5746C116.435 48.5342 117.523 44.5376 122.293 44.878C122.431 44.8879 122.536 45.0085 122.526 45.1472C122.516 45.286 122.396 45.3911 122.257 45.3806C117.913 45.069 116.951 48.5526 116.912 48.7011C116.882 48.8143 116.78 48.8894 116.669 48.8894Z" fill="#3F1629"/>
<path d="M129.232 50.4973C129.152 50.4973 129.074 50.4594 129.025 50.3888C128.851 50.1373 128.355 49.5365 127.512 49.3899C126.653 49.2406 125.733 49.6354 125.169 50.3956C125.086 50.5072 124.929 50.5304 124.817 50.4476C124.706 50.3647 124.682 50.2069 124.765 50.0952C125.452 49.1696 126.537 48.7095 127.598 48.8935C128.629 49.0727 129.229 49.7983 129.439 50.1019C129.518 50.2162 129.49 50.3732 129.375 50.4524C129.332 50.4828 129.282 50.4973 129.232 50.4973Z" fill="#3F1629"/>
<path d="M89.1633 50.017C89.0748 50.017 88.989 49.9702 88.9431 49.8873C87.4672 47.2226 84.4393 47.6212 84.3112 47.6392C84.1739 47.6592 84.0463 47.5632 84.0265 47.4257C84.0068 47.2881 84.1019 47.1606 84.2393 47.1406C84.2739 47.1356 87.7365 46.6702 89.3831 49.6428C89.4504 49.7645 89.4066 49.9178 89.2851 49.9853C89.2464 50.0068 89.2046 50.017 89.1633 50.017Z" fill="#3F1629"/>
<path d="M127.555 49.3924C127.541 49.3924 127.526 49.3911 127.511 49.3885C127.374 49.3642 127.283 49.2338 127.307 49.0969C127.313 49.0613 127.972 45.5398 131.374 45.3384C131.513 45.3299 131.631 45.4361 131.64 45.575C131.648 45.7138 131.542 45.8331 131.403 45.8413C128.403 46.0189 127.826 49.0555 127.803 49.1846C127.781 49.3066 127.675 49.3924 127.555 49.3924Z" fill="#3F1629"/>
<path d="M12.7197 37.6865H76.6434C76.6434 37.6865 75.2058 33.368 70.5097 36.055C70.0249 33.3775 67.866 31.3771 65.3345 31.1607C63.2233 30.9802 61.1444 32.0656 59.9676 33.9438C59.521 33.4187 57.8244 31.5524 54.9841 31.1607C53.2052 30.9154 51.7747 31.3584 51.0547 31.6405C50.1518 27.544 46.6281 24.5512 42.5251 24.347C38.6313 24.1533 34.9876 26.5097 33.5165 30.201C33.2354 29.9037 30.4596 27.0663 26.4244 27.6099C23.2613 28.036 20.5918 30.369 19.62 33.5599C19.2988 33.433 17.5038 32.7602 15.5948 33.6558C13.1406 34.8073 12.7443 37.4971 12.7197 37.6865Z" fill="white"/>
<path d="M34.8648 33.0918C34.7544 33.0918 34.6532 33.0185 34.6225 32.9068C33.2987 28.1076 28.0046 27.7681 27.9513 27.7652C27.8127 27.7577 27.7062 27.6392 27.7135 27.5004C27.7208 27.3615 27.8407 27.2543 27.9777 27.2621C28.0347 27.2651 33.686 27.6191 35.1075 32.7728C35.1445 32.9068 35.0659 33.0456 34.9319 33.0826C34.9095 33.0888 34.887 33.0918 34.8648 33.0918Z" fill="#3F1629"/>
<path d="M38.9383 35.0103C38.8561 35.0103 38.7756 34.9701 38.7273 34.896C38.6779 34.82 37.4908 33.0329 35.3507 33.0909C33.5733 33.1368 32.5265 34.4142 32.3347 34.6698C32.2512 34.7811 32.0935 34.8034 31.9824 34.7199C31.8714 34.6363 31.849 34.4784 31.9324 34.3671C32.1487 34.079 33.3289 32.6392 35.3376 32.5872C37.7596 32.5291 39.0929 34.5351 39.1488 34.6208C39.2247 34.7373 39.1919 34.8934 39.0755 34.9694C39.033 34.9971 38.9854 35.0103 38.9383 35.0103Z" fill="#3F1629"/>
<path d="M48.9052 34.7702C48.8842 34.7702 48.863 34.7676 48.8417 34.762C48.7075 34.727 48.6268 34.59 48.6615 34.4555C48.672 34.4151 49.7597 30.4184 54.5295 30.7589C54.6681 30.7688 54.7725 30.8894 54.7626 31.0281C54.7527 31.1668 54.6322 31.272 54.4937 31.2615C50.1498 30.9498 49.1874 34.4335 49.1486 34.582C49.1189 34.6951 49.0168 34.7702 48.9052 34.7702Z" fill="#3F1629"/>
<path d="M61.469 36.3781C61.3892 36.3781 61.3108 36.3403 61.2619 36.2697C61.0879 36.0181 60.5922 35.4174 59.7485 35.2708C58.8897 35.1215 57.9698 35.5162 57.4059 36.2764C57.3231 36.3881 57.1655 36.4113 57.054 36.3284C56.9425 36.2455 56.9192 36.0877 57.002 35.976C57.6884 35.0504 58.7737 34.5903 59.8346 34.7743C60.8656 34.9535 61.4655 35.6791 61.6755 35.9828C61.7547 36.0971 61.7262 36.2541 61.6121 36.3333C61.5683 36.3636 61.5183 36.3781 61.469 36.3781Z" fill="#3F1629"/>
<path d="M21.4 35.8979C21.3115 35.8979 21.2257 35.8511 21.1798 35.7681C19.7039 33.1035 16.676 33.502 16.5478 33.5201C16.4106 33.5401 16.283 33.4441 16.2632 33.3065C16.2435 33.169 16.3386 33.0414 16.476 33.0214C16.5106 33.0165 19.9732 32.5511 21.6197 35.5237C21.6871 35.6454 21.6433 35.7987 21.5218 35.8662C21.4831 35.8877 21.4413 35.8979 21.4 35.8979Z" fill="#3F1629"/>
<path d="M59.7918 35.2733C59.7773 35.2733 59.7624 35.272 59.7475 35.2693C59.6109 35.2451 59.5197 35.1147 59.5438 34.9778C59.5501 34.9422 60.2086 31.4206 63.6102 31.2192C63.7493 31.2108 63.868 31.3169 63.8762 31.4558C63.8844 31.5947 63.7786 31.714 63.6399 31.7222C60.6392 31.8998 60.0623 34.9363 60.0392 35.0655C60.0174 35.1875 59.9114 35.2733 59.7918 35.2733Z" fill="#3F1629"/>
<path d="M98.7745 84.3268V123.949H44.796V121.148H44.8553V84.3268H56.4126V70.5756L68.4906 61.7773L80.2558 70.3432H80.2564V84.3268H98.7745Z" fill="#971B47"/>
<path d="M132.214 56.8633L100.737 81.6129L100.677 81.6594L99.7058 82.423H75.4985L80.2559 78.2557L80.2565 78.2551L89.2898 70.3428L90.9902 65.661L91.691 63.73L93.2467 59.4465H68.429L53.5611 70.5753H56.4127V78.1499H56.4121V78.1505L52.1258 81.9959H44.8553V69.0084L60.6025 56.8633H132.214Z" fill="#354360"/>
<path d="M103.065 84.328V123.95H158.36V87.4162L128.276 65.4492L103.065 84.328Z" fill="#56001E"/>
<path d="M73.1128 70.459H63.7443V84.4435H73.1128V70.459Z" fill="#2A3249"/>
<path d="M62.4691 69.1816V85.7204H74.3882V69.1816H62.4691ZM71.8378 83.1665H65.0195V71.7361H71.8378V83.1665Z" fill="white"/>
<path d="M69.1668 70.0508H67.6902V85.0839H69.1668V70.0508Z" fill="white"/>
<path d="M132.893 70.459H123.525V84.4435H132.893V70.459Z" fill="#2A3249"/>
<path d="M123.458 70.3926V84.5114H132.96V70.3926H123.458ZM132.827 84.3769H123.592V70.5266H132.827V84.3769Z" fill="#FFBAA5"/>
<path d="M122.518 69.4512V85.4521H133.9V69.4512H122.518ZM124.532 71.4672H131.887V83.4354H124.532V71.4672Z" fill="#FFBAA5"/>
<path d="M128.947 70.0508H127.471V85.0839H128.947V70.0508Z" fill="#FFBAA5"/>
<path d="M57.8242 96.0371H44.8553V115.032H57.8242V96.0371Z" fill="#2A3249"/>
<path d="M44.8553 94.2949V96.8487H56.9132V114.223H44.8553V116.776H59.4636V94.2949H44.8553Z" fill="white"/>
<path d="M51.1431 95.5723H49.6665V115.5H51.1431V95.5723Z" fill="white"/>
<path d="M58.1884 100.66H44.8553V102.139H58.1884V100.66Z" fill="white"/>
<path d="M58.1884 108.76H44.8553V110.238H58.1884V108.76Z" fill="white"/>
<path d="M87.6751 96.0371H72.8369V115.032H87.6751V96.0371Z" fill="#2A3249"/>
<path d="M71.1975 94.2949V116.776H89.3148V94.2949H71.1975ZM86.7644 114.223H73.7485V96.8487H86.7644V114.223Z" fill="white"/>
<path d="M80.9943 95.5723H79.5177V115.5H80.9943V95.5723Z" fill="white"/>
<path d="M88.0393 100.66H72.4728V102.139H88.0393V100.66Z" fill="white"/>
<path d="M88.0393 108.76H72.4728V110.238H88.0393V108.76Z" fill="white"/>
<path d="M123.525 96.0371H110.905V115.032H123.525V96.0371Z" fill="#2A3249"/>
<path d="M109.32 94.2949V116.776H125.11V94.2949H109.32ZM122.56 114.223H111.871V96.8487H122.56V114.223Z" fill="#FFBAA5"/>
<path d="M117.953 95.5723H116.477V115.5H117.953V95.5723Z" fill="#FFBAA5"/>
<path d="M123.834 100.66H110.595V102.139H123.834V100.66Z" fill="#FFBAA5"/>
<path d="M123.834 108.76H110.595V110.238H123.834V108.76Z" fill="#FFBAA5"/>
<path d="M52.6055 118.238C52.6055 118.498 52.3953 118.709 52.1356 118.709H44.8553V117.768H52.1356C52.3953 117.768 52.6055 117.978 52.6055 118.238Z" fill="#49011A"/>
<path d="M54.2185 121.617C54.2185 121.876 54.0083 122.087 53.7486 122.087H44.796V121.146H53.7486C54.0084 121.146 54.2185 121.357 54.2185 121.617Z" fill="#49011A"/>
<path d="M49.6625 122.088C49.403 122.088 49.1926 121.877 49.1926 121.618V118.238C49.1926 117.978 49.4029 117.768 49.6625 117.768C49.922 117.768 50.1323 117.978 50.1323 118.238V121.618C50.1323 121.877 49.922 122.088 49.6625 122.088Z" fill="#49011A"/>
<path d="M46.947 123.992C46.6875 123.992 46.4772 123.782 46.4772 123.522V121.89C46.4772 121.631 46.6875 121.42 46.947 121.42C47.2065 121.42 47.4169 121.631 47.4169 121.89V123.522C47.4169 123.782 47.2066 123.992 46.947 123.992Z" fill="#49011A"/>
<path d="M149.014 87.0699H136.969C136.71 87.0699 136.499 86.8593 136.499 86.5994C136.499 86.3395 136.71 86.1289 136.969 86.1289H149.014C149.274 86.1289 149.484 86.3395 149.484 86.5994C149.484 86.8592 149.274 87.0699 149.014 87.0699Z" fill="#902421"/>
<path d="M154.775 90.4488H135.356C135.097 90.4488 134.886 90.2382 134.886 89.9783C134.886 89.7184 135.096 89.5078 135.356 89.5078H154.775C155.035 89.5078 155.245 89.7184 155.245 89.9783C155.245 90.2382 155.035 90.4488 154.775 90.4488Z" fill="#902421"/>
<path d="M145.028 90.4494C144.769 90.4494 144.559 90.2388 144.559 89.979V86.5994C144.559 86.3395 144.769 86.1289 145.028 86.1289C145.288 86.1289 145.498 86.3395 145.498 86.5994V89.979C145.498 90.2388 145.288 90.4494 145.028 90.4494Z" fill="#902421"/>
<path d="M139.442 90.4494C139.183 90.4494 138.972 90.2388 138.972 89.979V86.5994C138.972 86.3395 139.183 86.1289 139.442 86.1289C139.702 86.1289 139.912 86.3395 139.912 86.5994V89.979C139.912 90.2388 139.702 90.4494 139.442 90.4494Z" fill="#902421"/>
<path d="M142.158 92.3537C141.898 92.3537 141.688 92.1431 141.688 91.8832V90.2517C141.688 89.9919 141.898 89.7812 142.158 89.7812C142.417 89.7812 142.628 89.9918 142.628 90.2517V91.8832C142.628 92.143 142.417 92.3537 142.158 92.3537Z" fill="#902421"/>
<path d="M74.3089 88.7007H66.5977C66.3381 88.7007 66.1278 88.4901 66.1278 88.2303C66.1278 87.9704 66.3381 87.7598 66.5977 87.7598H74.3089C74.5684 87.7598 74.7788 87.9704 74.7788 88.2303C74.7788 88.4901 74.5684 88.7007 74.3089 88.7007Z" fill="#49011A"/>
<path d="M76.1451 92.0796H60.8369C60.5774 92.0796 60.3671 91.869 60.3671 91.6092C60.3671 91.3493 60.5774 91.1387 60.8369 91.1387H76.1451C76.4045 91.1387 76.6149 91.3493 76.6149 91.6092C76.6149 91.869 76.4045 92.0796 76.1451 92.0796Z" fill="#49011A"/>
<path d="M70.5836 92.0803C70.3241 92.0803 70.1138 91.8697 70.1138 91.6098V88.2303C70.1138 87.9704 70.3241 87.7598 70.5836 87.7598C70.8431 87.7598 71.0535 87.9704 71.0535 88.2303V91.6098C71.0535 91.8696 70.8431 92.0803 70.5836 92.0803Z" fill="#49011A"/>
<path d="M80.3233 84.3262H80.189V84.5596H80.3233V84.3262Z" fill="#EC672E"/>
<path d="M56.4127 80.5977V83.2261L55.1864 84.3268L52.1356 87.0654H44.8553V84.4027L52.1356 84.4437L52.2658 84.3268L56.4121 80.5977H56.4127Z" fill="#56001E"/>
<path d="M80.2561 70.3418H89.2894L80.256 78.6155L80.2561 70.3418Z" fill="#56001E"/>
<path d="M56.4123 70.5762H53.5612L68.4285 59.4473L83.2959 70.3436H80.2561L68.4905 61.7783L56.4123 70.5762Z" fill="white"/>
<path d="M68.4286 59.4473H93.2463L89.2894 70.3436H83.296L68.4286 59.4473Z" fill="#111A2B"/>
<path d="M52.1356 84.4435L44.8553 84.4025V81.9961H52.1258L52.135 84.3266L52.1356 84.4435Z" fill="#FFFCF2"/>
<path d="M164.024 82.0345V84.4433L131.865 60.2039L130.115 61.5188L103.066 81.8412H103.065V81.8417L100.947 83.4331V125.619H44.8553V123.949H98.7746V84.3264H75.3439V82.423H99.7058L100.677 81.6594L100.737 81.6129L132.214 56.8633L164.024 82.0345Z" fill="white"/>
<path d="M52.1356 84.4435L56.4123 80.5977V78.1504L52.1259 81.9961L52.1356 84.4435Z" fill="#FFBDAE"/>
<path d="M100.947 83.4336L103.065 81.8418V123.949H134.697V125.93H100.947V83.4336Z" fill="#8E0032"/>
<path d="M131.865 60.2031L164.024 84.4427H160.688V122.589H158.36V82.9664L130.115 61.518L131.865 60.2031Z" fill="#8E0032"/>
<path d="M103.065 84.3275V81.8422L130.115 61.5195L158.36 82.9679V87.4157L128.276 65.4488L103.065 84.3275Z" fill="#6B062A"/>
<path d="M134.592 94.8066V124.13H150.124V94.8066H134.592ZM136.12 96.3362H148.597V122.601H136.12V96.3362Z" fill="#FFBAA5"/>
<path d="M148.596 96.3359H136.12V122.6H148.596V96.3359Z" fill="#35455F"/>
<path d="M145.769 121.261H138.805C138.498 120.954 138.326 120.781 138.02 120.474V113.501C138.326 113.194 138.498 113.022 138.805 112.715H145.769C146.076 113.022 146.247 113.194 146.554 113.501V120.474C146.247 120.781 146.076 120.954 145.769 121.261Z" fill="#0F1A2E"/>
<path d="M139.078 113.775V120.202H145.496V113.775H139.078ZM144.691 119.395H139.884V114.582H144.691V119.395Z" fill="#2A364C"/>
<path d="M145.51 113.175L144.805 113.881L145.374 114.451L146.079 113.745L145.51 113.175Z" fill="#2A364C"/>
<path d="M139.059 113.191L138.49 113.762L139.195 114.467L139.764 113.897L139.059 113.191Z" fill="#2A364C"/>
<path d="M139.193 119.501L138.489 120.207L139.058 120.777L139.763 120.072L139.193 119.501Z" fill="#2A364C"/>
<path d="M145.376 119.514L144.806 120.084L145.511 120.79L146.081 120.219L145.376 119.514Z" fill="#2A364C"/>
<path d="M145.769 111.394H138.805C138.498 111.087 138.326 110.915 138.02 110.608V99.6789C138.326 99.3719 138.498 99.1997 138.805 98.8926H145.769C146.076 99.1997 146.247 99.3719 146.554 99.6789V110.608C146.247 110.915 146.076 111.087 145.769 111.394Z" fill="#0F1A2E"/>
<path d="M139.078 100.629V109.656H145.496V100.629H139.078ZM144.691 108.85H139.884V101.435H144.691V108.85Z" fill="#2A364C"/>
<path d="M145.798 99.6724L144.795 100.756L145.385 101.304L146.389 100.221L145.798 99.6724Z" fill="#2A364C"/>
<path d="M138.769 99.6722L138.179 100.221L139.183 101.304L139.773 100.756L138.769 99.6722Z" fill="#2A364C"/>
<path d="M139.197 108.97L138.142 110.002L138.705 110.579L139.76 109.546L139.197 108.97Z" fill="#2A364C"/>
<path d="M145.401 109.007L144.774 109.514L145.705 110.67L146.332 110.164L145.401 109.007Z" fill="#2A364C"/>
<path d="M134.592 123.082V134.088H142.882V129.701H140.321V126.751H137.451V123.082H134.592Z" fill="#FFEFE3"/>
<path d="M162.278 123.082V126.751H165.42V129.511H168.02V134.088H142.882V129.701H140.321V126.751H137.451V123.082H162.278Z" fill="#FDBEAC"/>
<path d="M165.421 127.207H140.321C140.062 127.207 139.852 127.002 139.852 126.749C139.852 126.496 140.062 126.291 140.321 126.291H165.421C165.68 126.291 165.89 126.496 165.89 126.749C165.89 127.002 165.68 127.207 165.421 127.207Z" fill="#902421"/>
<path d="M168.02 130.158H142.882C142.622 130.158 142.412 129.953 142.412 129.7C142.412 129.447 142.622 129.242 142.882 129.242H168.02C168.279 129.242 168.489 129.447 168.489 129.7C168.489 129.953 168.279 130.158 168.02 130.158Z" fill="#902421"/>
<path d="M162.278 123.539H137.451C137.191 123.539 136.981 123.334 136.981 123.081C136.981 122.828 137.191 122.623 137.451 122.623H162.278C162.538 122.623 162.748 122.828 162.748 123.081C162.748 123.334 162.538 123.539 162.278 123.539Z" fill="#902421"/>
<path d="M109.998 49.8184H115.455V52.926H114.343V58.9599L110.774 62.0158V52.926H109.998V49.8184Z" fill="#AB3A32"/>
<path d="M104.386 62.0158V52.926H103.688V49.8184H109.998V52.926H110.774V62.0158H104.386Z" fill="#DF6536"/>
<path d="M115.455 53.398H103.688C103.429 53.398 103.218 53.1874 103.218 52.9275C103.218 52.6676 103.429 52.457 103.688 52.457H115.455C115.715 52.457 115.925 52.6676 115.925 52.9275C115.925 53.1874 115.715 53.398 115.455 53.398Z" fill="#902421"/>
<path d="M100.947 125.93V134.087H53.4071C51.8435 134.087 50.5414 133.971 49.4654 133.709C49.3138 133.672 49.1666 133.632 49.0242 133.589C48.7914 133.519 48.5702 133.441 48.3601 133.354C48.1725 133.277 47.9935 133.194 47.823 133.103C47.5089 132.936 47.2248 132.746 46.9675 132.53C46.7708 132.366 46.5906 132.187 46.4249 131.992C45.6862 131.125 45.2475 129.953 45.0294 128.413C45.0043 128.238 44.9824 128.059 44.9634 127.875C44.9145 127.407 44.8834 126.907 44.8674 126.376C44.8632 126.229 44.8595 126.081 44.8577 125.93H100.947Z" fill="#620D2B"/>
<path d="M134.592 125.93H100.947V134.087H134.592V125.93Z" fill="#D6A5B7"/>
<path d="M44.9635 127.875C44.9824 128.059 45.0045 128.238 45.0295 128.413H97.5361V131.993H46.4251C46.5907 132.187 46.7709 132.367 46.9677 132.531H98.0732V127.875H44.9635Z" fill="#D6A5B7"/>
<path d="M129.482 125.93H128.945V128.144H129.482V125.93Z" fill="#620D2B"/>
<path d="M129.482 132.262H128.945V134.087H129.482V132.262Z" fill="#620D2B"/>
<path d="M125.021 128.145H124.484V132.262H125.021V128.145Z" fill="#620D2B"/>
<path d="M120.508 125.93H119.971V128.144H120.508V125.93Z" fill="#620D2B"/>
<path d="M120.508 132.262H119.971V134.087H120.508V132.262Z" fill="#620D2B"/>
<path d="M116.047 128.145H115.51V132.262H116.047V128.145Z" fill="#620D2B"/>
<path d="M111.534 125.93H110.997V128.144H111.534V125.93Z" fill="#620D2B"/>
<path d="M111.534 132.262H110.997V134.087H111.534V132.262Z" fill="#620D2B"/>
<path d="M107.073 128.145H106.536V132.262H107.073V128.145Z" fill="#620D2B"/>
<path d="M93.6506 125.93H93.1136V128.144H93.6506V125.93Z" fill="#D6A5B7"/>
<path d="M93.6506 132.262H93.1136V134.087H93.6506V132.262Z" fill="#D6A5B7"/>
<path d="M89.1894 128.145H88.6525V132.262H89.1894V128.145Z" fill="#D6A5B7"/>
<path d="M84.5925 125.93H84.0555V128.144H84.5925V125.93Z" fill="#D6A5B7"/>
<path d="M84.5925 132.262H84.0555V134.087H84.5925V132.262Z" fill="#D6A5B7"/>
<path d="M80.1313 128.145H79.5944V132.262H80.1313V128.145Z" fill="#D6A5B7"/>
<path d="M75.5343 125.93H74.9973V128.144H75.5343V125.93Z" fill="#D6A5B7"/>
<path d="M75.5343 132.262H74.9973V134.087H75.5343V132.262Z" fill="#D6A5B7"/>
<path d="M71.0731 128.145H70.5361V132.262H71.0731V128.145Z" fill="#D6A5B7"/>
<path d="M66.4762 125.93H65.9392V128.144H66.4762V125.93Z" fill="#D6A5B7"/>
<path d="M66.4762 132.262H65.9392V134.087H66.4762V132.262Z" fill="#D6A5B7"/>
<path d="M62.015 128.145H61.478V132.262H62.015V128.145Z" fill="#D6A5B7"/>
<path d="M57.4181 125.93H56.8811V128.144H57.4181V125.93Z" fill="#D6A5B7"/>
<path d="M57.4181 132.262H56.8811V134.087H57.4181V132.262Z" fill="#D6A5B7"/>
<path d="M52.9569 128.145H52.4199V132.262H52.9569V128.145Z" fill="#D6A5B7"/>
<path d="M48.3599 125.93H47.8229V128.144H48.3599V125.93Z" fill="#D6A5B7"/>
<path d="M48.3601 132.262V133.354C48.1725 133.277 47.9935 133.194 47.823 133.103V132.262H48.3601Z" fill="#D6A5B7"/>
<path d="M100.937 127.875V132.531H134.665V127.875H100.937ZM134.127 131.993H101.474V128.413H134.127V131.993Z" fill="#620D2B"/>
<path d="M101.215 132.53H97.8046V131.993H100.678V128.413H97.8046V127.875H101.215V132.53Z" fill="#D6A5B7"/>
<path d="M68.1656 56.8633L44.8553 75.3966V74.023L66.4377 56.8633H68.1656Z" fill="#111A2B"/>
<path d="M47.1746 81.9956L56.4125 74.6504V76.024L48.9019 81.9956H47.1746Z" fill="#111A2B"/>
<path d="M80.5123 56.8633L77.2629 59.4465H75.5355L78.7843 56.8633H80.5123Z" fill="#111A2B"/>
<path d="M102.055 56.8633L90.9901 65.6609L91.6909 63.73L100.327 56.8633H102.055Z" fill="#111A2B"/>
<path d="M87.261 82.423L119.408 56.8633H117.681L86.0628 82.002L86.3964 82.423H87.261Z" fill="#111A2B"/>
<path d="M99.7311 84.865C99.4379 84.865 99.1983 84.6291 99.1943 84.3346L99.1648 82.1653L132.212 56.1816L164.663 81.4035C164.898 81.5856 164.94 81.9234 164.758 82.158C164.577 82.3925 164.239 82.4352 164.005 82.253L132.216 57.5459L100.246 82.6825L100.268 84.32C100.272 84.6169 100.035 84.8609 99.7386 84.865C99.736 84.865 99.7336 84.865 99.7311 84.865Z" fill="#3E172A"/>
<path d="M37.9866 75.8867C44.2512 87.9701 48.3104 102.364 45.8039 115.745C45.4081 117.859 44.8735 120.014 43.6081 121.751C42.3427 123.488 40.185 124.728 38.0739 124.335C36.1894 123.984 34.7133 122.41 33.9746 120.639C33.2358 118.867 33.1151 116.907 33.0458 114.989C32.6966 105.323 33.4121 95.6184 35.1754 86.1084C35.8821 82.296 36.2461 79.3504 37.9866 75.8867Z" fill="#F0C89F"/>
<path d="M42.6858 63.802L42.5956 83.0273L43.013 83.0293L43.1032 63.804L42.6858 63.802Z" fill="#CA4533"/>
<path d="M43.2727 120.588C44.9539 117.735 45.6925 114.808 45.5214 111.674C45.5033 111.343 45.8142 111.091 46.1354 111.171C46.3442 111.223 46.4938 111.405 46.5096 111.62C46.7571 114.975 45.9999 118.095 44.2007 121.132C44.0648 121.362 43.7721 121.443 43.5379 121.316L43.4626 121.275C43.2161 121.142 43.1303 120.83 43.2727 120.588Z" fill="#F8BE82"/>
<path d="M52.5263 141.286C50.1353 140.37 47.9846 138.767 46.4717 136.721C46.3984 136.621 46.378 136.492 46.4147 136.374C46.5072 136.078 46.8913 136.005 47.0868 136.246C49.1012 138.729 52.1043 140.463 55.2584 140.932C58.4792 141.412 61.9323 140.587 64.6056 138.717C64.822 138.566 65.1222 138.665 65.2012 138.917C65.2914 139.205 65.1877 139.519 64.9417 139.693C62.1769 141.642 58.5946 142.505 55.2542 142.007C54.3256 141.868 53.4094 141.624 52.5263 141.286Z" fill="#F8BE82"/>
<path d="M83.1908 136.091L51.4059 136.629L51.4129 137.047L83.1978 136.509L83.1908 136.091Z" fill="#F8BE82"/>
<path d="M130.543 90.0202L151.038 153.466C151.992 156.418 155.183 158.008 158.109 156.99L161.164 155.927C164.002 154.939 165.532 151.861 164.607 148.998L144.31 86.1621C139.551 88.9625 133.712 89.7839 130.543 90.0202Z" fill="#3F1629"/>
<path d="M151.349 45.405C141.456 29.562 122.711 23.4348 109.482 31.7192C96.254 40.003 93.5518 59.5616 103.446 75.4044C113.341 91.2472 132.086 97.3744 145.315 89.0901C158.543 80.806 161.245 61.2473 151.349 45.405ZM147.539 82.4978C146.792 82.951 146.032 83.3684 145.248 83.7154C133.81 88.7763 119.073 82.8088 110.969 69.834C106.636 62.8971 104.815 55.0011 105.838 47.5989C106.546 42.4695 108.591 38.0431 111.692 34.6762C112.436 34.2255 113.192 33.8094 113.974 33.4634C125.411 28.4009 140.147 34.3709 148.252 47.3457C155.861 59.529 155.251 74.1064 147.539 82.4978Z" fill="#3F1629"/>
<path d="M155.774 41.7742C145.88 25.9312 127.135 19.804 113.907 28.0881C100.679 36.3723 97.9765 55.9309 107.871 71.7737C117.766 87.6163 136.511 93.7435 149.739 85.4594C162.967 77.1753 165.669 57.6166 155.774 41.7742ZM147.802 82.3573C146.974 82.8763 146.121 83.3279 145.248 83.7144C133.81 88.7752 119.073 82.8079 110.969 69.833C106.636 62.8961 104.815 55.0002 105.838 47.5979C106.826 40.4395 110.38 34.6128 115.843 31.1906C116.672 30.6715 117.524 30.22 118.399 29.8327C129.836 24.7703 144.572 30.7399 152.676 43.7149C161.487 57.821 159.299 75.156 147.802 82.3573Z" fill="#971B47"/>
<path d="M152.676 43.7155C144.572 30.7403 129.836 24.7709 118.399 29.8334C117.524 30.2205 116.671 30.6723 115.843 31.1912C114.294 32.1614 112.919 33.3437 111.692 34.676C112.436 34.2252 113.192 33.8091 113.974 33.4632C125.411 28.4007 140.147 34.3706 148.251 47.3455C155.861 59.5287 155.251 74.1061 147.539 82.4975C147.625 82.4456 147.717 82.4111 147.802 82.3579C159.299 75.1566 161.486 57.8219 152.676 43.7155Z" fill="#3F1629"/>
<path d="M134.279 87.4167L154.774 150.863C155.727 153.815 158.918 155.405 161.845 154.386L164.9 153.323C167.737 152.336 169.267 149.257 168.342 146.394L148.045 83.5586C143.286 86.3591 137.447 87.1804 134.279 87.4167Z" fill="#971B47"/>
<g opacity="0.63">
<g opacity="0.47">
<path d="M107.77 40.7422C106.844 42.8426 106.178 45.1332 105.838 47.5975C104.815 54.9999 106.636 62.8959 110.969 69.8328C119.073 82.8076 133.81 88.775 145.248 83.7139C146.032 83.3671 146.792 82.9497 147.539 82.4965C147.625 82.4447 147.717 82.41 147.802 82.3568C153.504 78.7852 156.909 72.7188 157.826 65.7921C135.601 64.6834 118.764 52.2854 107.77 40.7422Z" fill="#F3F2E9"/>
</g>
</g>
<path d="M130.328 121.808C128.268 124.5 127.155 130.56 127.155 130.56C127.155 130.56 128.168 133.212 131.214 132.317C134.26 131.422 134.811 130.156 134.811 130.156C134.811 130.156 135.196 134.244 136.172 134.945C136.172 134.945 135.276 139.481 137.099 142C138.923 144.519 142.325 144.27 143.633 144.132C144.94 143.994 146.085 142.395 146.085 142.395L148.123 141.118C148.123 141.118 157.631 143.62 159.952 144.882C162.273 146.144 163.932 148.141 166.82 152.13C170.138 156.714 172.718 164.474 185.406 166.45C185.406 166.45 185.617 166.562 186.005 166.81H222.815L223.363 166.209C223.363 166.209 210.935 152.045 207.632 145.54C204.329 139.034 199.203 136.768 195.347 131.177C191.49 125.585 182.95 108.663 181.677 107.346C180.404 106.029 179.511 102.631 177.49 100.811C175.468 98.9906 170.561 96.1409 170.561 96.1409L170.561 96.1415C165.956 92.5241 158.679 87.2594 155.029 87.0133C148.427 86.5685 141.189 99.3554 129.365 106.806C129.365 106.806 127.522 108.021 127.498 109.585C127.477 110.85 128.753 112.587 132.327 112.182C135.068 111.871 138.509 110.451 141.847 108.718C137.118 111.468 132.293 119.243 130.328 121.808ZM154.271 100.927L159.301 105.377C155.212 105.697 146.322 106.572 142.562 108.341C148.688 105.069 154.271 100.927 154.271 100.927Z" fill="#F0C89F"/>
<path d="M127.672 107.811C127.672 107.811 132.901 103.349 133.963 103.721C136.207 104.507 134.954 106.955 133.38 108.279C131.491 109.866 128.966 110.703 128.966 110.703C128.966 110.703 126.753 109.339 127.672 107.811Z" fill="#9AAAE5"/>
<path d="M128.796 125.081C130.994 124.56 131.552 126.997 131.168 128.756C130.709 130.866 129.299 132.732 129.299 132.732C129.299 132.732 126.767 132.809 126.525 131.221C126.525 131.221 127.757 125.328 128.796 125.081Z" fill="#9AAAE5"/>
<path d="M168.13 105.139C168.116 104.645 166.129 104.298 163.691 104.363C161.253 104.429 159.288 104.882 159.301 105.376C159.314 105.869 161.302 106.217 163.739 106.151C166.178 106.086 168.143 105.632 168.13 105.139Z" fill="#F8BE82"/>
<path d="M134.811 130.155C135.012 130.157 134.847 128.118 136.942 125.97L136.907 126.004C139.643 123.808 143.818 120.351 149.246 119.083C150.512 118.809 151.716 118.768 152.946 118.829C154.235 118.853 155.48 118.876 156.671 118.898C159.017 118.902 161.142 118.906 162.98 118.91C166.57 118.864 168.782 118.711 168.781 118.464C168.78 118.218 166.573 117.922 163.019 117.646C161.2 117.532 159.098 117.4 156.777 117.254C155.599 117.199 154.368 117.142 153.094 117.084C151.757 116.985 150.281 117.023 148.878 117.333C142.787 118.787 138.678 122.614 136.1 125.128L136.068 125.158L136.065 125.163C133.874 127.904 134.576 130.318 134.811 130.155Z" fill="#F8BE82"/>
<path d="M137.487 134.38C137.603 134.603 139.259 133.961 141.908 132.935C143.233 132.431 144.81 131.821 146.566 131.292C148.177 130.754 150.211 130.907 152.365 130.982C160.98 131.536 168.029 132.392 168.1 131.861C168.168 131.416 161.26 129.764 152.455 129.196C150.281 129.126 148.056 128.983 146.063 129.723C144.225 130.375 142.674 131.12 141.39 131.783C138.831 133.122 137.374 134.166 137.487 134.38Z" fill="#F8BE82"/>
<path d="M142.621 142.026C142.766 142.457 143.961 142.622 145.495 142.396C147.007 142.166 148.189 141.607 148.123 141.117C148.058 140.628 146.762 140.395 145.227 140.628C143.711 140.846 142.453 141.515 142.621 142.026Z" fill="#F8BE82"/>
<path d="M180.017 117.843C180.199 117.991 180.716 117.761 181.21 117.04C181.7 116.338 182.094 115.08 181.817 113.726C181.191 110.939 178.934 110.027 178.746 110.45C178.433 110.851 179.705 112.197 180.065 114.072C180.473 115.933 179.628 117.53 180.017 117.843Z" fill="#F8BE82"/>
<path d="M179.416 129.527C179.774 129.872 181.404 128.15 181.044 125.515C180.701 122.877 178.678 121.642 178.422 122.069C178.091 122.452 179.054 123.827 179.274 125.751C179.565 127.665 178.996 129.245 179.416 129.527Z" fill="#F8BE82"/>
<path d="M175.524 141.33C175.799 141.734 177.53 140.756 178.021 138.55C178.522 136.346 177.375 134.719 176.955 134.966C176.491 135.171 176.663 136.578 176.279 138.157C175.95 139.749 175.193 140.947 175.524 141.33Z" fill="#F8BE82"/>
<path d="M192.324 58.0742C206.923 58.0742 218.758 47.6911 218.758 34.8828C218.758 22.0746 206.923 11.6914 192.324 11.6914C177.725 11.6914 165.89 22.0746 165.89 34.8828C165.89 47.6911 177.725 58.0742 192.324 58.0742Z" fill="white"/>
<path d="M173.306 44.5137L170.289 58.5604C169.9 60.3685 171.84 61.7786 173.437 60.8485L196.205 47.5841L173.306 44.5137Z" fill="white"/>
<path d="M192.324 17.4766C188.147 17.4766 184.76 20.7876 184.76 24.8719C184.76 27.6336 186.309 30.0409 188.603 31.3108C189.105 31.5886 189.426 32.1074 189.425 32.6815L189.394 48.9308C189.392 49.5539 189.637 50.145 190.06 50.5432L191.215 51.6296C191.59 51.9825 192.148 51.9122 192.446 51.4749L194.077 49.4803C194.303 49.1739 194.335 48.766 194.162 48.4273L193.6 47.6303C193.366 47.2983 193.359 46.8565 193.583 46.5177L194.253 45.5059L194.257 41.601C194.241 41.4934 194.213 41.3869 194.162 41.2869L193.6 40.4899C193.366 40.1579 193.359 39.7159 193.583 39.3773L194.253 38.3657L194.26 38.3727L194.266 32.9273L194.278 32.9316V35.7805C194.278 35.5371 194.475 35.34 194.718 35.34H195.437C195.87 35.34 196.174 34.9144 196.032 34.5052C195.911 34.1553 195.728 33.5725 195.549 32.9816C195.34 32.2921 195.637 31.5579 196.255 31.1895C198.433 29.8916 199.888 27.5484 199.888 24.8719C199.888 20.7876 196.502 17.4766 192.324 17.4766ZM192.324 23.0858C191.243 23.0858 190.366 22.2287 190.366 21.1714C190.366 20.1141 191.243 19.257 192.324 19.257C193.406 19.257 194.282 20.1141 194.282 21.1714C194.282 22.2287 193.406 23.0858 192.324 23.0858Z" fill="#FFB331"/>
<path d="M192.068 32.0938C191.809 32.0938 191.6 32.3037 191.6 32.5628V51.8323C191.909 51.9005 192.24 51.7784 192.446 51.4754L192.536 51.3648V32.5628C192.537 32.3037 192.327 32.0938 192.068 32.0938Z" fill="#F1651E"/>
<path d="M206.111 46.258C206.895 46.1679 207.389 46.0324 207.681 45.9243C207.841 45.8649 207.841 45.6376 207.681 45.5783C207.389 45.4701 206.895 45.3346 206.111 45.2445C205.996 44.0416 205.818 43.3389 205.699 42.9776C205.659 42.8563 205.49 42.8564 205.45 42.9778C205.331 43.339 205.154 44.0417 205.039 45.2445C204.255 45.3346 203.761 45.4701 203.469 45.5783C203.309 45.6376 203.309 45.8649 203.469 45.9243C203.761 46.0325 204.255 46.1679 205.039 46.258C205.154 47.4608 205.331 48.1634 205.45 48.5247C205.49 48.646 205.659 48.6461 205.699 48.5249C205.818 48.1636 205.996 47.4609 206.111 46.258Z" fill="#FFBE39"/>
<path d="M176.663 28.4963C177.447 28.4062 177.94 28.2707 178.232 28.1625C178.392 28.1031 178.392 27.8759 178.232 27.8165C177.94 27.7083 177.447 27.5728 176.663 27.4827C176.548 26.2798 176.369 25.5771 176.25 25.2159C176.21 25.0946 176.041 25.0947 176.001 25.2161C175.883 25.5773 175.705 26.28 175.59 27.4827C174.806 27.5728 174.313 27.7083 174.021 27.8165C173.861 27.8759 173.861 28.1031 174.021 28.1625C174.313 28.2707 174.806 28.4062 175.59 28.4963C175.705 29.699 175.883 30.4017 176.001 30.763C176.041 30.8843 176.21 30.8844 176.25 30.7631C176.369 30.4019 176.548 29.6992 176.663 28.4963Z" fill="#FFBE39"/>
<path d="M201.297 50.4081C201.388 50.0257 201.151 49.6425 200.769 49.5522C200.387 49.4619 200.005 49.6987 199.915 50.0811C199.824 50.4635 200.061 50.8466 200.443 50.9369C200.825 51.0272 201.207 50.7904 201.297 50.4081Z" fill="#FFBE39"/>
<path d="M181.384 19.7609C181.661 19.483 181.661 19.0326 181.384 18.7548C181.106 18.477 180.656 18.4769 180.379 18.7548C180.101 19.0326 180.101 19.483 180.379 19.7609C180.656 20.0387 181.106 20.0387 181.384 19.7609Z" fill="#FFBE39"/>
<path d="M201.81 38.6261C202.087 38.3483 202.087 37.8978 201.81 37.62C201.532 37.3422 201.083 37.3422 200.805 37.62C200.528 37.8978 200.528 38.3483 200.805 38.6261C201.083 38.9039 201.532 38.9039 201.81 38.6261Z" fill="#FFBE39"/>
<path d="M210.917 28.4933C211.194 28.2155 211.194 27.765 210.917 27.4872C210.639 27.2094 210.189 27.2094 209.912 27.4872C209.634 27.765 209.634 28.2155 209.912 28.4933C210.189 28.7711 210.639 28.7711 210.917 28.4933Z" fill="#FFBE39"/>
<path d="M182.291 39.0077C182.381 38.6253 182.145 38.2421 181.763 38.1518C181.381 38.0615 180.998 38.2983 180.908 38.6807C180.818 39.0631 181.055 39.4462 181.436 39.5365C181.818 39.6268 182.201 39.39 182.291 39.0077Z" fill="#FFBE39"/>
<path d="M178.853 49.8312C179.13 49.5533 179.13 49.1029 178.853 48.8251C178.576 48.5473 178.126 48.5473 177.848 48.8251C177.571 49.1029 177.571 49.5533 177.848 49.8312C178.126 50.109 178.576 50.109 178.853 49.8312Z" fill="#FFBE39"/>
<path d="M228.806 166.688H13.0017C12.8119 166.688 12.6581 166.534 12.6581 166.344C12.6581 166.154 12.8119 166 13.0017 166H228.806C228.996 166 229.15 166.154 229.15 166.344C229.15 166.534 228.996 166.688 228.806 166.688Z" fill="#C8C8C8"/>
<path d="M214.447 12.3352C214.53 12.5866 214.88 12.5864 214.963 12.3349C215.209 11.5862 215.576 10.1299 215.815 7.6373C217.44 7.45057 218.463 7.16983 219.068 6.94552C219.4 6.82246 219.4 6.3515 219.068 6.22844C218.463 6.00418 217.44 5.72339 215.815 5.53671C215.576 3.04402 215.209 1.58778 214.963 0.839102C214.88 0.587637 214.53 0.587425 214.447 0.838838C214.2 1.58746 213.831 3.04375 213.592 5.53676C211.967 5.72349 210.944 6.00423 210.339 6.22854C210.007 6.3516 210.008 6.82256 210.339 6.94562C210.944 7.16988 211.967 7.45067 213.592 7.63735C213.831 10.1303 214.2 11.5866 214.447 12.3352Z" fill="white"/>
<path d="M190.109 97.3567C190.192 97.6081 190.543 97.6079 190.625 97.3564C190.871 96.6077 191.239 95.1514 191.477 92.6588C193.102 92.4721 194.126 92.1913 194.73 91.967C195.062 91.8439 195.062 91.373 194.73 91.2499C194.125 91.0257 193.102 90.7449 191.477 90.5582C191.239 88.0655 190.871 86.6093 190.625 85.8606C190.543 85.6091 190.192 85.6089 190.109 85.8603C189.863 86.6089 189.494 88.0652 189.255 90.5582C187.63 90.7449 186.607 91.0257 186.002 91.25C185.67 91.373 185.67 91.844 186.002 91.9671C186.607 92.1913 187.63 92.4721 189.255 92.6588C189.494 95.1518 189.863 96.6081 190.109 97.3567Z" fill="white"/>
<path d="M148.34 18.2727C148.423 18.5241 148.773 18.5239 148.856 18.2724C149.101 17.5237 149.469 16.0674 149.708 13.5748C151.333 13.3881 152.356 13.1073 152.961 12.883C153.292 12.76 153.292 12.289 152.961 12.1659C152.356 11.9417 151.333 11.6609 149.708 11.4742C149.469 8.98152 149.101 7.52529 148.856 6.77661C148.773 6.52514 148.423 6.52493 148.34 6.77629C148.093 7.52492 147.724 8.98121 147.485 11.4742C145.86 11.6609 144.837 11.9417 144.232 12.166C143.9 12.2891 143.9 12.76 144.232 12.8831C144.837 13.1073 145.86 13.3881 147.485 13.5748C147.724 16.0678 148.093 17.5241 148.34 18.2727Z" fill="white"/>
<path d="M20.8989 14.3528C20.9818 14.6042 21.3322 14.604 21.4148 14.3525C21.6607 13.6038 22.0282 12.1475 22.2668 9.65488C23.8919 9.46815 24.915 9.18742 25.5198 8.9631C25.8517 8.84004 25.8517 8.36908 25.5198 8.24602C24.9149 8.02176 23.8919 7.74097 22.2668 7.55429C22.0282 5.0616 21.6607 3.60537 21.4148 2.85669C21.3322 2.60522 20.9818 2.60501 20.8989 2.85637C20.652 3.605 20.283 5.06128 20.0444 7.55429C18.4193 7.74103 17.3963 8.02176 16.7914 8.24607C16.4595 8.36913 16.4595 8.8401 16.7914 8.96316C17.3963 9.18742 18.4193 9.4682 20.0444 9.65488C20.283 12.1479 20.652 13.6042 20.8989 14.3528Z" fill="white"/>
<path d="M101.217 152.222C101.3 152.473 101.651 152.473 101.733 152.222C101.979 151.473 102.347 150.017 102.585 147.524C104.21 147.337 105.233 147.057 105.838 146.832C106.17 146.709 106.17 146.238 105.838 146.115C105.233 145.891 104.21 145.61 102.585 145.423C102.347 142.931 101.979 141.475 101.733 140.726C101.651 140.474 101.3 140.474 101.217 140.726C100.97 141.474 100.601 142.93 100.363 145.423C98.7377 145.61 97.7146 145.891 97.1098 146.115C96.7779 146.238 96.7779 146.709 97.1098 146.832C97.7146 147.057 98.7377 147.337 100.363 147.524C100.601 150.017 100.97 151.473 101.217 152.222Z" fill="white"/>
<path d="M13.5881 61.8548C13.6711 62.1061 14.0215 62.106 14.104 61.8544C14.3499 61.1058 14.7174 59.6495 14.956 57.1568C16.5811 56.9701 17.6042 56.6894 18.209 56.465C18.5409 56.342 18.5409 55.871 18.209 55.748C17.6041 55.5237 16.5811 55.2429 14.956 55.0562C14.7174 52.5635 14.3499 51.1073 14.104 50.3586C14.0214 50.1072 13.6711 50.107 13.5881 50.3584C13.3412 51.107 12.9722 52.5633 12.7336 55.0563C11.1085 55.243 10.0854 55.5238 9.48061 55.7481C9.14872 55.8711 9.14872 56.3421 9.48061 56.4652C10.0855 56.6894 11.1085 56.9702 12.7336 57.1569C12.9722 59.6499 13.3412 61.1062 13.5881 61.8548Z" fill="white"/>
<path d="M183.553 3.73373C184.247 3.73373 184.811 3.16986 184.811 2.47429C184.811 1.77872 184.247 1.21484 183.553 1.21484C182.858 1.21484 182.295 1.77872 182.295 2.47429C182.295 3.16986 182.858 3.73373 183.553 3.73373Z" fill="white"/>
<path d="M227.064 49.6654C227.758 49.6654 228.322 49.1015 228.322 48.4059C228.322 47.7104 227.758 47.1465 227.064 47.1465C226.369 47.1465 225.806 47.7104 225.806 48.4059C225.806 49.1015 226.369 49.6654 227.064 49.6654Z" fill="white"/>
<path d="M215.877 95.5521C216.571 95.5521 217.135 94.9882 217.135 94.2927C217.135 93.5971 216.571 93.0332 215.877 93.0332C215.182 93.0332 214.619 93.5971 214.619 94.2927C214.619 94.9882 215.182 95.5521 215.877 95.5521Z" fill="white"/>
<path d="M219.524 137.96C220.209 137.849 220.675 137.202 220.564 136.515C220.452 135.829 219.806 135.363 219.121 135.474C218.435 135.585 217.969 136.232 218.081 136.919C218.192 137.606 218.838 138.072 219.524 137.96Z" fill="white"/>
<path d="M118.934 7.82382C119.2 7.18118 118.895 6.44443 118.253 6.17823C117.611 5.91204 116.876 6.2172 116.61 6.85984C116.344 7.50248 116.649 8.23923 117.291 8.50543C117.932 8.77162 118.668 8.46646 118.934 7.82382Z" fill="white"/>
<path d="M136.981 155.952C137.676 155.952 138.239 155.389 138.239 154.693C138.239 153.997 137.676 153.434 136.981 153.434C136.286 153.434 135.723 153.997 135.723 154.693C135.723 155.389 136.286 155.952 136.981 155.952Z" fill="white"/>
<path d="M27.3371 64.9564C28.0317 64.9564 28.5948 64.3925 28.5948 63.6969C28.5948 63.0014 28.0317 62.4375 27.3371 62.4375C26.6425 62.4375 26.0793 63.0014 26.0793 63.6969C26.0793 64.3925 26.6425 64.9564 27.3371 64.9564Z" fill="white"/>
<path d="M5.77817 137.331C6.29012 136.861 6.32458 136.065 5.85515 135.552C5.38571 135.039 4.59015 135.005 4.07821 135.475C3.56626 135.945 3.53179 136.742 4.00123 137.254C4.47066 137.767 5.26623 137.802 5.77817 137.331Z" fill="white"/>
<path d="M1.25177 93.6107C1.9464 93.6107 2.50951 93.0468 2.50951 92.3512C2.50951 91.6557 1.9464 91.0918 1.25177 91.0918C0.557132 91.0918 -0.00598145 91.6557 -0.00598145 92.3512C-0.00598145 93.0468 0.557132 93.6107 1.25177 93.6107Z" fill="white"/>
<path d="M76.9252 152.779C77.6199 152.779 78.183 152.215 78.183 151.519C78.183 150.824 77.6199 150.26 76.9252 150.26C76.2306 150.26 75.6675 150.824 75.6675 151.519C75.6675 152.215 76.2306 152.779 76.9252 152.779Z" fill="white"/>
</svg>
