<svg width="13" height="13" viewBox="0 0 13 13" fill="none" xmlns="http://www.w3.org/2000/svg">
<g clip-path="url(#clip0_925_10191)">
<path d="M6.57202 12.7305C9.88573 12.7305 12.572 10.0442 12.572 6.73047C12.572 3.41676 9.88573 0.730469 6.57202 0.730469C3.25831 0.730469 0.572021 3.41676 0.572021 6.73047C0.572021 10.0442 3.25831 12.7305 6.57202 12.7305Z" fill="#2196F3"/>
<path d="M9.57202 7.97097C8.92477 7.97097 8.30752 7.82997 7.73827 7.55172C7.64902 7.50897 7.54552 7.50222 7.45102 7.53447C7.35652 7.56747 7.27927 7.63647 7.23577 7.72572L6.96577 8.28447C6.15577 7.81947 5.48377 7.14672 5.01802 6.33672L5.57752 6.06672C5.66752 6.02322 5.73577 5.94597 5.76877 5.85147C5.80102 5.75697 5.79502 5.65347 5.75152 5.56422C5.47252 4.99572 5.33152 4.37847 5.33152 3.73047C5.33152 3.52347 5.16352 3.35547 4.95652 3.35547H3.57202C3.36502 3.35547 3.19702 3.52347 3.19702 3.73047C3.19702 7.24572 6.05677 10.1055 9.57202 10.1055C9.77902 10.1055 9.94702 9.93747 9.94702 9.73047V8.34597C9.94702 8.13897 9.77902 7.97097 9.57202 7.97097Z" fill="#FAFAFA"/>
</g>
<defs>
<clipPath id="clip0_925_10191">
<rect width="12" height="12" fill="white" transform="translate(0.572021 0.730469)"/>
</clipPath>
</defs>
</svg>
